<svg xmlns="http://www.w3.org/2000/svg" width="2047" height="1152"><path d="M1141,528L1239,532L1276,423Z" fill="#191e2a" stroke="#191e2a" stroke-width="1.51"/><path d="M1276,423L1098,369L1141,528Z" fill="#181e2a" stroke="#181e2a" stroke-width="1.51"/><path d="M1272,218L1089,248L1098,369Z" fill="#1f283b" stroke="#1f283b" stroke-width="1.51"/><path d="M1276,423L1272,218L1098,369Z" fill="#202a3d" stroke="#202a3d" stroke-width="1.51"/><path d="M1438,580L1442,433L1276,423Z" fill="#232f43" stroke="#232f43" stroke-width="1.51"/><path d="M1421,207L1272,218L1276,423Z" fill="#283854" stroke="#283854" stroke-width="1.51"/><path d="M1239,532L1438,580L1276,423Z" fill="#1e2636" stroke="#1e2636" stroke-width="1.51"/><path d="M1248,744L1438,580L1239,532Z" fill="#1e2636" stroke="#1e2636" stroke-width="1.51"/><path d="M1141,528L1120,736L1239,532Z" fill="#14171e" stroke="#14171e" stroke-width="1.51"/><path d="M971,700L1120,736L1141,528Z" fill="#13161d" stroke="#13161d" stroke-width="1.51"/><path d="M901,379L1141,528L1098,369Z" fill="#11131b" stroke="#11131b" stroke-width="1.51"/><path d="M1120,736L1248,744L1239,532Z" fill="#1d2331" stroke="#1d2331" stroke-width="1.51"/><path d="M921,258L901,379L1098,369Z" fill="#161b26" stroke="#161b26" stroke-width="1.51"/><path d="M889,606L971,700L1141,528Z" fill="#080b0f" stroke="#080b0f" stroke-width="1.51"/><path d="M1089,248L921,258L1098,369Z" fill="#171c29" stroke="#171c29" stroke-width="1.51"/><path d="M1109,87L921,258L1089,248Z" fill="#1c2335" stroke="#1c2335" stroke-width="1.51"/><path d="M1442,433L1421,207L1276,423Z" fill="#293853" stroke="#293853" stroke-width="1.51"/><path d="M901,379L889,606L1141,528Z" fill="#0b0d13" stroke="#0b0d13" stroke-width="1.51"/><path d="M1272,218L1109,87L1089,248Z" fill="#233047" stroke="#233047" stroke-width="1.51"/><path d="M1391,139L1294,98L1272,218Z" fill="#2f4265" stroke="#2f4265" stroke-width="1.51"/><path d="M901,379L830,537L889,606Z" fill="#11131b" stroke="#11131b" stroke-width="1.51"/><path d="M764,363L830,537L901,379Z" fill="#171b27" stroke="#171b27" stroke-width="1.51"/><path d="M1421,207L1391,139L1272,218Z" fill="#304367" stroke="#304367" stroke-width="1.51"/><path d="M1294,98L1109,87L1272,218Z" fill="#2a3a58" stroke="#2a3a58" stroke-width="1.51"/><path d="M1442,433L1580,423L1421,207Z" fill="#2f4263" stroke="#2f4263" stroke-width="1.51"/><path d="M1421,207L1573,192L1391,139Z" fill="#354e77" stroke="#354e77" stroke-width="1.51"/><path d="M1438,580L1580,423L1442,433Z" fill="#293953" stroke="#293953" stroke-width="1.51"/><path d="M1438,580L1558,627L1580,423Z" fill="#293750" stroke="#293750" stroke-width="1.51"/><path d="M1248,744L1449,761L1438,580Z" fill="#293850" stroke="#293850" stroke-width="1.51"/><path d="M1307,851L1449,761L1248,744Z" fill="#2e405d" stroke="#2e405d" stroke-width="1.51"/><path d="M1449,761L1558,627L1438,580Z" fill="#2c3c57" stroke="#2c3c57" stroke-width="1.51"/><path d="M1154,871L1307,851L1248,744Z" fill="#2c3c57" stroke="#2c3c57" stroke-width="1.51"/><path d="M1154,871L1248,744L1120,736Z" fill="#243045" stroke="#243045" stroke-width="1.51"/><path d="M976,934L1154,871L1120,736Z" fill="#253145" stroke="#253145" stroke-width="1.51"/><path d="M788,264L764,363L901,379Z" fill="#1c2233" stroke="#1c2233" stroke-width="1.51"/><path d="M788,264L901,379L921,258Z" fill="#1b2233" stroke="#1b2233" stroke-width="1.51"/><path d="M928,34L788,264L921,258Z" fill="#202a41" stroke="#202a41" stroke-width="1.51"/><path d="M1580,423L1573,192L1421,207Z" fill="#354d74" stroke="#354d74" stroke-width="1.51"/><path d="M1305,-84L1143,-75L1294,98Z" fill="#2b3d5d" stroke="#2b3d5d" stroke-width="1.51"/><path d="M1307,851L1399,906L1449,761Z" fill="#364e71" stroke="#364e71" stroke-width="1.51"/><path d="M1449,761L1608,728L1558,627Z" fill="#34496b" stroke="#34496b" stroke-width="1.51"/><path d="M1238,1099L1399,906L1307,851Z" fill="#3c5781" stroke="#3c5781" stroke-width="1.51"/><path d="M1550,958L1608,728L1449,761Z" fill="#3d5a85" stroke="#3d5a85" stroke-width="1.51"/><path d="M1558,627L1742,599L1580,423Z" fill="#2f415f" stroke="#2f415f" stroke-width="1.51"/><path d="M1768,212L1637,115L1573,192Z" fill="#426499" stroke="#426499" stroke-width="1.51"/><path d="M1109,87L928,34L921,258Z" fill="#20293f" stroke="#20293f" stroke-width="1.51"/><path d="M1143,-75L928,34L1109,87Z" fill="#202b41" stroke="#202b41" stroke-width="1.51"/><path d="M971,700L976,934L1120,736Z" fill="#1c2330" stroke="#1c2330" stroke-width="1.51"/><path d="M1154,871L1238,1099L1307,851Z" fill="#364d71" stroke="#364d71" stroke-width="1.51"/><path d="M818,901L976,934L971,700Z" fill="#243045" stroke="#243045" stroke-width="1.51"/><path d="M750,777L971,700L889,606Z" fill="#181e2a" stroke="#181e2a" stroke-width="1.51"/><path d="M750,777L889,606L830,537Z" fill="#151923" stroke="#151923" stroke-width="1.51"/><path d="M1294,98L1143,-75L1109,87Z" fill="#273653" stroke="#273653" stroke-width="1.51"/><path d="M1305,-84L1294,98L1438,-44Z" fill="#30466d" stroke="#30466d" stroke-width="1.51"/><path d="M649,585L750,777L830,537Z" fill="#171c28" stroke="#171c28" stroke-width="1.51"/><path d="M1438,-44L1294,98L1391,139Z" fill="#334971" stroke="#334971" stroke-width="1.51"/><path d="M1637,115L1438,-44L1391,139Z" fill="#395583" stroke="#395583" stroke-width="1.51"/><path d="M764,363L649,585L830,537Z" fill="#161a26" stroke="#161a26" stroke-width="1.51"/><path d="M616,365L649,585L764,363Z" fill="#1b2233" stroke="#1b2233" stroke-width="1.51"/><path d="M1573,192L1637,115L1391,139Z" fill="#3b5888" stroke="#3b5888" stroke-width="1.51"/><path d="M1768,212L1573,192L1580,423Z" fill="#3c5987" stroke="#3c5987" stroke-width="1.51"/><path d="M788,264L666,252L764,363Z" fill="#20293f" stroke="#20293f" stroke-width="1.51"/><path d="M777,27L666,252L788,264Z" fill="#24314d" stroke="#24314d" stroke-width="1.51"/><path d="M1608,728L1742,599L1558,627Z" fill="#354b6e" stroke="#354b6e" stroke-width="1.51"/><path d="M750,777L818,901L971,700Z" fill="#222c40" stroke="#222c40" stroke-width="1.51"/><path d="M666,252L616,365L764,363Z" fill="#202a40" stroke="#202a40" stroke-width="1.51"/><path d="M976,934L1094,1043L1154,871Z" fill="#2d3f5a" stroke="#2d3f5a" stroke-width="1.51"/><path d="M995,1066L1094,1043L976,934Z" fill="#304361" stroke="#304361" stroke-width="1.51"/><path d="M928,34L777,27L788,264Z" fill="#24314c" stroke="#24314c" stroke-width="1.51"/><path d="M905,-72L777,27L928,34Z" fill="#222f49" stroke="#222f49" stroke-width="1.51"/><path d="M1143,-75L905,-72L928,34Z" fill="#1e293f" stroke="#1e293f" stroke-width="1.51"/><path d="M972,-249L905,-72L1143,-75Z" fill="#1d283e" stroke="#1d283e" stroke-width="1.51"/><path d="M1742,599L1799,366L1580,423Z" fill="#354b71" stroke="#354b71" stroke-width="1.51"/><path d="M1399,906L1550,958L1449,761Z" fill="#3f5c87" stroke="#3f5c87" stroke-width="1.51"/><path d="M1608,728L1729,771L1742,599Z" fill="#3b577f" stroke="#3b577f" stroke-width="1.51"/><path d="M1439,1064L1550,958L1399,906Z" fill="#476b9f" stroke="#476b9f" stroke-width="1.51"/><path d="M579,887L644,740L453,848Z" fill="#2e4061" stroke="#2e4061" stroke-width="1.51"/><path d="M649,585L644,740L750,777Z" fill="#1f283b" stroke="#1f283b" stroke-width="1.51"/><path d="M750,777L579,887L818,901Z" fill="#2b3c59" stroke="#2b3c59" stroke-width="1.51"/><path d="M1550,958L1729,771L1608,728Z" fill="#436595" stroke="#436595" stroke-width="1.51"/><path d="M1742,599L1937,521L1799,366Z" fill="#304164" stroke="#304164" stroke-width="1.51"/><path d="M1637,115L1637,-88L1438,-44Z" fill="#3e5f92" stroke="#3e5f92" stroke-width="1.51"/><path d="M1799,366L1768,212L1580,423Z" fill="#3b5683" stroke="#3b5683" stroke-width="1.51"/><path d="M1094,1043L1238,1099L1154,871Z" fill="#375075" stroke="#375075" stroke-width="1.51"/><path d="M818,901L995,1066L976,934Z" fill="#2e415e" stroke="#2e415e" stroke-width="1.51"/><path d="M737,1102L995,1066L818,901Z" fill="#364e73" stroke="#364e73" stroke-width="1.51"/><path d="M1120,1279L1238,1099L1094,1043Z" fill="#33466c" stroke="#33466c" stroke-width="1.51"/><path d="M1238,1099L1439,1064L1399,906Z" fill="#456799" stroke="#456799" stroke-width="1.51"/><path d="M1305,-84L1242,-209L1143,-75Z" fill="#293b5b" stroke="#293b5b" stroke-width="1.51"/><path d="M1427,-241L1242,-209L1305,-84Z" fill="#2e446a" stroke="#2e446a" stroke-width="1.51"/><path d="M1427,-241L1305,-84L1438,-44Z" fill="#324b75" stroke="#324b75" stroke-width="1.51"/><path d="M777,27L597,127L666,252Z" fill="#283858" stroke="#283858" stroke-width="1.51"/><path d="M666,252L501,284L616,365Z" fill="#24304a" stroke="#24304a" stroke-width="1.51"/><path d="M616,365L442,597L649,585Z" fill="#1b2232" stroke="#1b2232" stroke-width="1.51"/><path d="M618,-126L597,127L777,27Z" fill="#283a5c" stroke="#283a5c" stroke-width="1.51"/><path d="M1768,212L1771,68L1637,115Z" fill="#43669e" stroke="#43669e" stroke-width="1.51"/><path d="M1963,120L1771,68L1768,212Z" fill="#3f5e96" stroke="#3f5e96" stroke-width="1.51"/><path d="M1936,708L1937,521L1742,599Z" fill="#2e3c5d" stroke="#2e3c5d" stroke-width="1.51"/><path d="M1550,958L1765,859L1729,771Z" fill="#4a71a8" stroke="#4a71a8" stroke-width="1.51"/><path d="M1774,1011L1765,859L1550,958Z" fill="#517cbb" stroke="#517cbb" stroke-width="1.51"/><path d="M1771,68L1637,-88L1637,115Z" fill="#446aa3" stroke="#446aa3" stroke-width="1.51"/><path d="M1439,1064L1541,1069L1550,958Z" fill="#4e78b4" stroke="#4e78b4" stroke-width="1.51"/><path d="M1472,1239L1541,1069L1439,1064Z" fill="#486ba5" stroke="#486ba5" stroke-width="1.51"/><path d="M785,-218L761,-111L905,-72Z" fill="#23314e" stroke="#23314e" stroke-width="1.51"/><path d="M905,-72L761,-111L777,27Z" fill="#24324f" stroke="#24324f" stroke-width="1.51"/><path d="M597,127L501,284L666,252Z" fill="#283655" stroke="#283655" stroke-width="1.51"/><path d="M1242,-209L1096,-268L1143,-75Z" fill="#253451" stroke="#253451" stroke-width="1.51"/><path d="M1427,-241L1096,-268L1242,-209Z" fill="#293d5f" stroke="#293d5f" stroke-width="1.51"/><path d="M1545,-221L1427,-241L1438,-44Z" fill="#365382" stroke="#365382" stroke-width="1.51"/><path d="M1096,-268L972,-249L1143,-75Z" fill="#1f2b43" stroke="#1f2b43" stroke-width="1.51"/><path d="M1936,708L1742,599L1729,771Z" fill="#384d75" stroke="#384d75" stroke-width="1.51"/><path d="M1799,366L1953,231L1768,212Z" fill="#3a5282" stroke="#3a5282" stroke-width="1.51"/><path d="M644,740L579,887L750,777Z" fill="#293853" stroke="#293853" stroke-width="1.51"/><path d="M442,597L644,740L649,585Z" fill="#1d2537" stroke="#1d2537" stroke-width="1.51"/><path d="M1937,521L1944,371L1799,366Z" fill="#31426a" stroke="#31426a" stroke-width="1.51"/><path d="M1718,-279L1545,-221L1637,-88Z" fill="#3f659d" stroke="#3f659d" stroke-width="1.51"/><path d="M1637,-88L1545,-221L1438,-44Z" fill="#3b5b8d" stroke="#3b5b8d" stroke-width="1.51"/><path d="M418,364L442,597L616,365Z" fill="#212a42" stroke="#212a42" stroke-width="1.51"/><path d="M1238,1099L1311,1214L1439,1064Z" fill="#3f5a8b" stroke="#3f5a8b" stroke-width="1.51"/><path d="M1120,1279L1311,1214L1238,1099Z" fill="#354771" stroke="#354771" stroke-width="1.51"/><path d="M1120,1279L1094,1043L995,1066Z" fill="#2f3e60" stroke="#2f3e60" stroke-width="1.51"/><path d="M501,284L418,364L616,365Z" fill="#25314d" stroke="#25314d" stroke-width="1.51"/><path d="M298,246L418,364L501,284Z" fill="#2a3a5c" stroke="#2a3a5c" stroke-width="1.51"/><path d="M403,51L501,284L597,127Z" fill="#2d4066" stroke="#2d4066" stroke-width="1.51"/><path d="M1937,521L2070,414L1944,371Z" fill="#2d3a61" stroke="#2d3a61" stroke-width="1.51"/><path d="M1765,859L1936,708L1729,771Z" fill="#3f5a8a" stroke="#3f5a8a" stroke-width="1.51"/><path d="M1910,896L1936,708L1765,859Z" fill="#405c8f" stroke="#405c8f" stroke-width="1.51"/><path d="M972,-249L785,-218L905,-72Z" fill="#212d48" stroke="#212d48" stroke-width="1.51"/><path d="M761,-111L618,-126L777,27Z" fill="#263757" stroke="#263757" stroke-width="1.51"/><path d="M579,887L737,1102L818,901Z" fill="#354d73" stroke="#354d73" stroke-width="1.51"/><path d="M1944,371L1953,231L1799,366Z" fill="#354977" stroke="#354977" stroke-width="1.51"/><path d="M1771,68L1798,-96L1637,-88Z" fill="#4266a0" stroke="#4266a0" stroke-width="1.51"/><path d="M1963,120L1953,231L2067,263Z" fill="#374c80" stroke="#374c80" stroke-width="1.51"/><path d="M1541,1069L1774,1011L1550,958Z" fill="#5483c4" stroke="#5483c4" stroke-width="1.51"/><path d="M1795,1249L1774,1011L1541,1069Z" fill="#5480c6" stroke="#5480c6" stroke-width="1.51"/><path d="M737,1102L819,1182L995,1066Z" fill="#32456a" stroke="#32456a" stroke-width="1.51"/><path d="M641,-216L618,-126L761,-111Z" fill="#27395b" stroke="#27395b" stroke-width="1.51"/><path d="M1930,-60L1798,-96L1771,68Z" fill="#3e5f98" stroke="#3e5f98" stroke-width="1.51"/><path d="M937,1285L1120,1279L995,1066Z" fill="#293251" stroke="#293251" stroke-width="1.51"/><path d="M442,597L400,703L644,740Z" fill="#232f46" stroke="#232f46" stroke-width="1.51"/><path d="M579,887L598,1091L737,1102Z" fill="#3d5a88" stroke="#3d5a88" stroke-width="1.51"/><path d="M331,593L400,703L442,597Z" fill="#232d45" stroke="#232d45" stroke-width="1.51"/><path d="M1289,1348L1472,1239L1311,1214Z" fill="#3a4e80" stroke="#3a4e80" stroke-width="1.51"/><path d="M1311,1214L1472,1239L1439,1064Z" fill="#415d92" stroke="#415d92" stroke-width="1.51"/><path d="M400,703L453,848L644,740Z" fill="#2a3b58" stroke="#2a3b58" stroke-width="1.51"/><path d="M737,1102L637,1194L819,1182Z" fill="#344771" stroke="#344771" stroke-width="1.51"/><path d="M2067,263L1953,231L1944,371Z" fill="#344575" stroke="#344575" stroke-width="1.51"/><path d="M1953,231L1963,120L1768,212Z" fill="#3b558a" stroke="#3b558a" stroke-width="1.51"/><path d="M1774,1011L1910,896L1765,859Z" fill="#4b70ac" stroke="#4b70ac" stroke-width="1.51"/><path d="M819,1182L937,1285L995,1066Z" fill="#2d3b5e" stroke="#2d3b5e" stroke-width="1.51"/><path d="M412,-43L403,51L597,127Z" fill="#2f446e" stroke="#2f446e" stroke-width="1.51"/><path d="M785,-218L641,-216L761,-111Z" fill="#253657" stroke="#253657" stroke-width="1.51"/><path d="M972,-249L641,-216L785,-218Z" fill="#233250" stroke="#233250" stroke-width="1.51"/><path d="M425,-220L641,-216L972,-249Z" fill="#26395b" stroke="#26395b" stroke-width="1.51"/><path d="M483,1064L598,1091L579,887Z" fill="#3e5d8e" stroke="#3e5d8e" stroke-width="1.51"/><path d="M819,1182L778,1367L937,1285Z" fill="#2b355a" stroke="#2b355a" stroke-width="1.51"/><path d="M400,703L311,722L453,848Z" fill="#2d4061" stroke="#2d4061" stroke-width="1.51"/><path d="M418,364L331,593L442,597Z" fill="#202a40" stroke="#202a40" stroke-width="1.51"/><path d="M2143,578L2070,414L1937,521Z" fill="#283153" stroke="#283153" stroke-width="1.51"/><path d="M2143,578L1937,521L1936,708Z" fill="#283153" stroke="#283153" stroke-width="1.51"/><path d="M1472,1239L1542,1269L1541,1069Z" fill="#4767a3" stroke="#4767a3" stroke-width="1.51"/><path d="M1973,1033L2056,896L1910,896Z" fill="#4766a5" stroke="#4766a5" stroke-width="1.51"/><path d="M1474,1432L1542,1269L1472,1239Z" fill="#405792" stroke="#405792" stroke-width="1.51"/><path d="M1289,1348L1311,1214L1120,1279Z" fill="#32416c" stroke="#32416c" stroke-width="1.51"/><path d="M412,-43L597,127L618,-126Z" fill="#2c4067" stroke="#2c4067" stroke-width="1.51"/><path d="M418,364L244,401L331,593Z" fill="#24304b" stroke="#24304b" stroke-width="1.51"/><path d="M2070,414L2067,263L1944,371Z" fill="#303e6a" stroke="#303e6a" stroke-width="1.51"/><path d="M1052,1408L1289,1348L1120,1279Z" fill="#2a3157" stroke="#2a3157" stroke-width="1.51"/><path d="M1963,120L1930,-60L1771,68Z" fill="#3e5a94" stroke="#3e5a94" stroke-width="1.51"/><path d="M1798,-96L1718,-279L1637,-88Z" fill="#4167a2" stroke="#4167a2" stroke-width="1.51"/><path d="M2135,-61L1930,-60L1963,120Z" fill="#39518b" stroke="#39518b" stroke-width="1.51"/><path d="M1545,-221L1718,-279L1427,-241Z" fill="#3b5d91" stroke="#3b5d91" stroke-width="1.51"/><path d="M1427,-241L1718,-279L1096,-268Z" fill="#324d79" stroke="#324d79" stroke-width="1.51"/><path d="M1980,-265L1718,-279L1798,-96Z" fill="#3d5e99" stroke="#3d5e99" stroke-width="1.51"/><path d="M403,51L298,246L501,284Z" fill="#2e426a" stroke="#2e426a" stroke-width="1.51"/><path d="M331,593L311,722L400,703Z" fill="#273450" stroke="#273450" stroke-width="1.51"/><path d="M453,848L483,1064L579,887Z" fill="#39537f" stroke="#39537f" stroke-width="1.51"/><path d="M167,727L311,722L331,593Z" fill="#273653" stroke="#273653" stroke-width="1.51"/><path d="M482,1231L637,1194L598,1091Z" fill="#384f7f" stroke="#384f7f" stroke-width="1.51"/><path d="M598,1091L637,1194L737,1102Z" fill="#384e7b" stroke="#384e7b" stroke-width="1.51"/><path d="M403,51L340,57L298,246Z" fill="#324a77" stroke="#324a77" stroke-width="1.51"/><path d="M340,-103L412,-43L425,-220Z" fill="#304875" stroke="#304875" stroke-width="1.51"/><path d="M1910,896L2070,779L1936,708Z" fill="#3b5081" stroke="#3b5081" stroke-width="1.51"/><path d="M2056,896L2070,779L1910,896Z" fill="#3f578d" stroke="#3f578d" stroke-width="1.51"/><path d="M336,1052L483,1064L453,848Z" fill="#406194" stroke="#406194" stroke-width="1.51"/><path d="M412,-43L340,57L403,51Z" fill="#314976" stroke="#314976" stroke-width="1.51"/><path d="M298,246L244,401L418,364Z" fill="#29395a" stroke="#29395a" stroke-width="1.51"/><path d="M137,541L244,401L81,379Z" fill="#24314d" stroke="#24314d" stroke-width="1.51"/><path d="M2070,779L2143,578L1936,708Z" fill="#2f3b63" stroke="#2f3b63" stroke-width="1.51"/><path d="M2070,414L2196,300L2067,263Z" fill="#2e3a67" stroke="#2e3a67" stroke-width="1.51"/><path d="M948,1427L1052,1408L937,1285Z" fill="#222445" stroke="#222445" stroke-width="1.51"/><path d="M937,1285L1052,1408L1120,1279Z" fill="#242848" stroke="#242848" stroke-width="1.51"/><path d="M1973,1033L1910,896L1774,1011Z" fill="#4e74b5" stroke="#4e74b5" stroke-width="1.51"/><path d="M2196,784L2200,522L2143,578Z" fill="#252a4c" stroke="#252a4c" stroke-width="1.51"/><path d="M1890,1190L1973,1033L1774,1011Z" fill="#5076bc" stroke="#5076bc" stroke-width="1.51"/><path d="M1644,1354L1542,1269L1474,1432Z" fill="#425a97" stroke="#425a97" stroke-width="1.51"/><path d="M1644,1354L1795,1249L1542,1269Z" fill="#4b6cb0" stroke="#4b6cb0" stroke-width="1.51"/><path d="M1542,1269L1795,1249L1541,1069Z" fill="#4d73b5" stroke="#4d73b5" stroke-width="1.51"/><path d="M637,1194L778,1367L819,1182Z" fill="#2f3d66" stroke="#2f3d66" stroke-width="1.51"/><path d="M662,1367L778,1367L637,1194Z" fill="#2e3a65" stroke="#2e3a65" stroke-width="1.51"/><path d="M778,1367L948,1427L937,1285Z" fill="#252a4e" stroke="#252a4e" stroke-width="1.51"/><path d="M1474,1432L1472,1239L1289,1348Z" fill="#394c81" stroke="#394c81" stroke-width="1.51"/><path d="M1474,1432L1289,1348L1052,1408Z" fill="#2e3864" stroke="#2e3864" stroke-width="1.51"/><path d="M2196,784L2143,578L2070,779Z" fill="#2e3862" stroke="#2e3862" stroke-width="1.51"/><path d="M2143,578L2200,522L2070,414Z" fill="#252b4d" stroke="#252b4d" stroke-width="1.51"/><path d="M2067,263L2137,88L1963,120Z" fill="#374b82" stroke="#374b82" stroke-width="1.51"/><path d="M1973,1033L1890,1190L2093,1175Z" fill="#4968ad" stroke="#4968ad" stroke-width="1.51"/><path d="M1795,1249L1890,1190L1774,1011Z" fill="#4e73b8" stroke="#4e73b8" stroke-width="1.51"/><path d="M2226,916L2196,784L2056,896Z" fill="#3a4e84" stroke="#3a4e84" stroke-width="1.51"/><path d="M2196,300L2137,88L2067,263Z" fill="#324174" stroke="#324174" stroke-width="1.51"/><path d="M1930,-60L1980,-265L1798,-96Z" fill="#3b5993" stroke="#3b5993" stroke-width="1.51"/><path d="M2278,414L2196,300L2070,414Z" fill="#2a315b" stroke="#2a315b" stroke-width="1.51"/><path d="M948,1427L1474,1432L1052,1408Z" fill="#262a50" stroke="#262a50" stroke-width="1.51"/><path d="M340,57L107,208L298,246Z" fill="#304671" stroke="#304671" stroke-width="1.51"/><path d="M412,-43L340,-103L340,57Z" fill="#314a77" stroke="#314a77" stroke-width="1.51"/><path d="M425,-220L412,-43L618,-126Z" fill="#2d436d" stroke="#2d436d" stroke-width="1.51"/><path d="M641,-216L425,-220L618,-126Z" fill="#2a3f66" stroke="#2a3f66" stroke-width="1.51"/><path d="M1096,-268L425,-220L972,-249Z" fill="#22314e" stroke="#22314e" stroke-width="1.51"/><path d="M483,1064L482,1231L598,1091Z" fill="#3c5688" stroke="#3c5688" stroke-width="1.51"/><path d="M256,947L336,1052L453,848Z" fill="#3e5e90" stroke="#3e5e90" stroke-width="1.51"/><path d="M256,947L453,848L311,722Z" fill="#354d76" stroke="#354d76" stroke-width="1.51"/><path d="M324,1218L482,1231L483,1064Z" fill="#3c578d" stroke="#3c578d" stroke-width="1.51"/><path d="M482,1231L662,1367L637,1194Z" fill="#334473" stroke="#334473" stroke-width="1.51"/><path d="M778,1367L662,1367L948,1427Z" fill="#272c54" stroke="#272c54" stroke-width="1.51"/><path d="M2106,1117L2056,896L1973,1033Z" fill="#4c6eb2" stroke="#4c6eb2" stroke-width="1.51"/><path d="M2056,896L2196,784L2070,779Z" fill="#384a7d" stroke="#384a7d" stroke-width="1.51"/><path d="M167,727L256,947L311,722Z" fill="#31476d" stroke="#31476d" stroke-width="1.51"/><path d="M244,401L137,541L331,593Z" fill="#212c44" stroke="#212c44" stroke-width="1.51"/><path d="M107,208L244,401L298,246Z" fill="#2a3d62" stroke="#2a3d62" stroke-width="1.51"/><path d="M137,541L167,727L331,593Z" fill="#212d45" stroke="#212d45" stroke-width="1.51"/><path d="M2135,-61L1980,-265L1930,-60Z" fill="#38508b" stroke="#38508b" stroke-width="1.51"/><path d="M2226,-100L2135,-61L2308,52Z" fill="#31427b" stroke="#31427b" stroke-width="1.51"/><path d="M2137,88L2135,-61L1963,120Z" fill="#374d85" stroke="#374d85" stroke-width="1.51"/><path d="M2308,52L2135,-61L2137,88Z" fill="#33447d" stroke="#33447d" stroke-width="1.51"/><path d="M2200,522L2278,414L2070,414Z" fill="#262b51" stroke="#262b51" stroke-width="1.51"/><path d="M2196,784L2278,414L2200,522Z" fill="#1f203f" stroke="#1f203f" stroke-width="1.51"/><path d="M75,88L107,208L340,57Z" fill="#314a77" stroke="#314a77" stroke-width="1.51"/><path d="M425,-220L319,-198L340,-103Z" fill="#304978" stroke="#304978" stroke-width="1.51"/><path d="M75,88L340,57L101,-35Z" fill="#314a78" stroke="#314a78" stroke-width="1.51"/><path d="M107,208L81,379L244,401Z" fill="#283a5c" stroke="#283a5c" stroke-width="1.51"/><path d="M-34,714L110,892L167,727Z" fill="#2e4469" stroke="#2e4469" stroke-width="1.51"/><path d="M2093,1175L2106,1117L1973,1033Z" fill="#4865aa" stroke="#4865aa" stroke-width="1.51"/><path d="M1922,1438L1890,1190L1795,1249Z" fill="#455fa4" stroke="#455fa4" stroke-width="1.51"/><path d="M2106,1117L2226,916L2056,896Z" fill="#4561a1" stroke="#4561a1" stroke-width="1.51"/><path d="M2196,784L2300,1033L2278,414Z" fill="#2d3561" stroke="#2d3561" stroke-width="1.51"/><path d="M1644,1354L1817,1414L1795,1249Z" fill="#4763a8" stroke="#4763a8" stroke-width="1.51"/><path d="M1474,1432L1817,1414L1644,1354Z" fill="#455ea1" stroke="#455ea1" stroke-width="1.51"/><path d="M2106,1117L2300,1033L2226,916Z" fill="#4662a7" stroke="#4662a7" stroke-width="1.51"/><path d="M2044,1395L2093,1175L1890,1190Z" fill="#42599e" stroke="#42599e" stroke-width="1.51"/><path d="M138,1238L324,1218L336,1052Z" fill="#3e5a94" stroke="#3e5a94" stroke-width="1.51"/><path d="M336,1052L324,1218L483,1064Z" fill="#416099" stroke="#416099" stroke-width="1.51"/><path d="M482,1231L451,1409L662,1367Z" fill="#314071" stroke="#314071" stroke-width="1.51"/><path d="M86,1030L336,1052L256,947Z" fill="#4367a0" stroke="#4367a0" stroke-width="1.51"/><path d="M-34,714L167,727L137,541Z" fill="#24334f" stroke="#24334f" stroke-width="1.51"/><path d="M167,727L110,892L256,947Z" fill="#354f7b" stroke="#354f7b" stroke-width="1.51"/><path d="M2135,-61L2135,-247L1980,-265Z" fill="#354c86" stroke="#354c86" stroke-width="1.51"/><path d="M2308,52L2137,88L2196,300Z" fill="#324178" stroke="#324178" stroke-width="1.51"/><path d="M2226,-100L2135,-247L2135,-61Z" fill="#33467f" stroke="#33467f" stroke-width="1.51"/><path d="M101,-35L340,57L340,-103Z" fill="#304a78" stroke="#304a78" stroke-width="1.51"/><path d="M107,208L14,377L81,379Z" fill="#283a5d" stroke="#283a5d" stroke-width="1.51"/><path d="M-46,223L14,377L107,208Z" fill="#2a3e64" stroke="#2a3e64" stroke-width="1.51"/><path d="M81,379L14,377L137,541Z" fill="#24324f" stroke="#24324f" stroke-width="1.51"/><path d="M2278,414L2308,52L2196,300Z" fill="#2c3566" stroke="#2c3566" stroke-width="1.51"/><path d="M319,-198L101,-35L340,-103Z" fill="#304979" stroke="#304979" stroke-width="1.51"/><path d="M324,1218L451,1409L482,1231Z" fill="#374b81" stroke="#374b81" stroke-width="1.51"/><path d="M662,1367L451,1409L948,1427Z" fill="#29315c" stroke="#29315c" stroke-width="1.51"/><path d="M1817,1414L1922,1438L1795,1249Z" fill="#42599e" stroke="#42599e" stroke-width="1.51"/><path d="M1474,1432L1922,1438L1817,1414Z" fill="#435a9f" stroke="#435a9f" stroke-width="1.51"/><path d="M301,1444L1922,1438L1474,1432Z" fill="#29305a" stroke="#29305a" stroke-width="1.51"/><path d="M324,1218L301,1444L451,1409Z" fill="#35477f" stroke="#35477f" stroke-width="1.51"/><path d="M110,892L86,1030L256,947Z" fill="#3e5f93" stroke="#3e5f93" stroke-width="1.51"/><path d="M-67,903L86,1030L110,892Z" fill="#3c5c90" stroke="#3c5c90" stroke-width="1.51"/><path d="M2239,1220L2300,1033L2106,1117Z" fill="#41589c" stroke="#41589c" stroke-width="1.51"/><path d="M2226,916L2300,1033L2196,784Z" fill="#3b4e89" stroke="#3b4e89" stroke-width="1.51"/><path d="M2278,414L2300,1033L2308,52Z" fill="#202144" stroke="#202144" stroke-width="1.51"/><path d="M2239,1220L2106,1117L2093,1175Z" fill="#42589c" stroke="#42589c" stroke-width="1.51"/><path d="M2226,-100L2207,-275L2135,-247Z" fill="#31447e" stroke="#31447e" stroke-width="1.51"/><path d="M2135,-247L2207,-275L1980,-265Z" fill="#334a84" stroke="#334a84" stroke-width="1.51"/><path d="M1980,-265L2207,-275L1718,-279Z" fill="#38548f" stroke="#38548f" stroke-width="1.51"/><path d="M2308,52L2207,-275L2226,-100Z" fill="#30407a" stroke="#30407a" stroke-width="1.51"/><path d="M-65,532L-34,714L137,541Z" fill="#1f2940" stroke="#1f2940" stroke-width="1.51"/><path d="M-46,223L107,208L-17,91Z" fill="#2e4571" stroke="#2e4571" stroke-width="1.51"/><path d="M-161,372L-65,532L14,377Z" fill="#233250" stroke="#233250" stroke-width="1.51"/><path d="M14,377L-65,532L137,541Z" fill="#212d48" stroke="#212d48" stroke-width="1.51"/><path d="M-17,91L107,208L75,88Z" fill="#304977" stroke="#304977" stroke-width="1.51"/><path d="M101,-35L-17,91L75,88Z" fill="#304a78" stroke="#304a78" stroke-width="1.51"/><path d="M1922,1438L2044,1395L1890,1190Z" fill="#405398" stroke="#405398" stroke-width="1.51"/><path d="M101,-35L-95,-132L-17,91Z" fill="#2f4979" stroke="#2f4979" stroke-width="1.51"/><path d="M319,-198L86,-216L101,-35Z" fill="#2f4979" stroke="#2f4979" stroke-width="1.51"/><path d="M425,-220L86,-216L319,-198Z" fill="#2f4979" stroke="#2f4979" stroke-width="1.51"/><path d="M1096,-268L86,-216L425,-220Z" fill="#2a4069" stroke="#2a4069" stroke-width="1.51"/><path d="M2044,1395L2239,1220L2093,1175Z" fill="#3e4f93" stroke="#3e4f93" stroke-width="1.51"/><path d="M86,1030L138,1238L336,1052Z" fill="#40619b" stroke="#40619b" stroke-width="1.51"/><path d="M-93,1180L138,1238L86,1030Z" fill="#3d5d96" stroke="#3d5d96" stroke-width="1.51"/><path d="M138,1238L301,1444L324,1218Z" fill="#374d85" stroke="#374d85" stroke-width="1.51"/><path d="M451,1409L301,1444L948,1427Z" fill="#2c3465" stroke="#2c3465" stroke-width="1.51"/><path d="M948,1427L301,1444L1474,1432Z" fill="#212245" stroke="#212245" stroke-width="1.51"/><path d="M-34,714L-67,903L110,892Z" fill="#334c77" stroke="#334c77" stroke-width="1.51"/><path d="M-200,872L-67,903L-34,714Z" fill="#314b76" stroke="#314b76" stroke-width="1.51"/><path d="M-224,224L-161,372L-46,223Z" fill="#293e64" stroke="#293e64" stroke-width="1.51"/><path d="M-46,223L-161,372L14,377Z" fill="#283a5d" stroke="#283a5d" stroke-width="1.51"/><path d="M-65,532L-196,685L-34,714Z" fill="#22304b" stroke="#22304b" stroke-width="1.51"/><path d="M-186,77L-46,223L-17,91Z" fill="#304978" stroke="#304978" stroke-width="1.51"/><path d="M86,-216L-1,-205L101,-35Z" fill="#2e4979" stroke="#2e4979" stroke-width="1.51"/><path d="M-208,609L-196,685L-65,532Z" fill="#1f2b44" stroke="#1f2b44" stroke-width="1.51"/><path d="M-161,372L-208,609L-65,532Z" fill="#202c46" stroke="#202c46" stroke-width="1.51"/><path d="M-1,-205L-95,-132L101,-35Z" fill="#2e4979" stroke="#2e4979" stroke-width="1.51"/><path d="M-161,372L-224,224L-208,609Z" fill="#243453" stroke="#243453" stroke-width="1.51"/><path d="M2044,1395L2303,1357L2239,1220Z" fill="#384487" stroke="#384487" stroke-width="1.51"/><path d="M2239,1220L2303,1357L2300,1033Z" fill="#3b4a8f" stroke="#3b4a8f" stroke-width="1.51"/><path d="M2300,1033L2303,1357L2308,52Z" fill="#313b6d" stroke="#313b6d" stroke-width="1.51"/><path d="M1922,1438L2303,1357L2044,1395Z" fill="#384387" stroke="#384387" stroke-width="1.51"/><path d="M-95,-132L-186,77L-17,91Z" fill="#2e4979" stroke="#2e4979" stroke-width="1.51"/><path d="M138,1238L80,1389L301,1444Z" fill="#34477f" stroke="#34477f" stroke-width="1.51"/><path d="M-67,903L-97,1082L86,1030Z" fill="#41669f" stroke="#41669f" stroke-width="1.51"/><path d="M-200,872L-97,1082L-67,903Z" fill="#3c5e93" stroke="#3c5e93" stroke-width="1.51"/><path d="M-186,77L-224,224L-46,223Z" fill="#2d4571" stroke="#2d4571" stroke-width="1.51"/><path d="M-93,1180L80,1389L138,1238Z" fill="#374f89" stroke="#374f89" stroke-width="1.51"/><path d="M-196,685L-200,872L-34,714Z" fill="#2b4065" stroke="#2b4065" stroke-width="1.51"/><path d="M-208,609L-200,872L-196,685Z" fill="#283b5d" stroke="#283b5d" stroke-width="1.51"/><path d="M-220,1108L-200,872L-208,609Z" fill="#34507e" stroke="#34507e" stroke-width="1.51"/><path d="M-97,1082L-93,1180L86,1030Z" fill="#3f629c" stroke="#3f629c" stroke-width="1.51"/><path d="M-220,1108L-93,1180L-97,1082Z" fill="#3d5f9a" stroke="#3d5f9a" stroke-width="1.51"/><path d="M-93,1180L13,1415L80,1389Z" fill="#344983" stroke="#344983" stroke-width="1.51"/><path d="M80,1389L13,1415L301,1444Z" fill="#314079" stroke="#314079" stroke-width="1.51"/><path d="M-224,224L-253,-50L-208,609Z" fill="#293f66" stroke="#293f66" stroke-width="1.51"/><path d="M-186,77L-253,-50L-224,224Z" fill="#2e4979" stroke="#2e4979" stroke-width="1.51"/><path d="M-95,-132L-253,-50L-186,77Z" fill="#2d4979" stroke="#2d4979" stroke-width="1.51"/><path d="M-234,-195L-253,-50L-95,-132Z" fill="#2d4979" stroke="#2d4979" stroke-width="1.51"/><path d="M-93,1180L-149,1399L13,1415Z" fill="#344983" stroke="#344983" stroke-width="1.51"/><path d="M-200,872L-220,1108L-97,1082Z" fill="#4169a3" stroke="#4169a3" stroke-width="1.51"/><path d="M-244,1273L-220,1108L-208,609Z" fill="#3f659e" stroke="#3f659e" stroke-width="1.51"/><path d="M-1,-205L-234,-195L-95,-132Z" fill="#2d497a" stroke="#2d497a" stroke-width="1.51"/><path d="M86,-216L-234,-195L-1,-205Z" fill="#2d497a" stroke="#2d497a" stroke-width="1.51"/><path d="M-244,1273L-149,1399L-93,1180Z" fill="#364e88" stroke="#364e88" stroke-width="1.51"/><path d="M13,1415L-149,1399L301,1444Z" fill="#304079" stroke="#304079" stroke-width="1.51"/><path d="M-220,1108L-244,1273L-93,1180Z" fill="#3a5893" stroke="#3a5893" stroke-width="1.51"/><path d="M-253,-50L-244,1273L-208,609Z" fill="#1f2b45" stroke="#1f2b45" stroke-width="1.51"/></svg>